Coordinates
version=1
nRows=16
nColumns=36
inDegrees=yes

Units are S.I. units (second, meters, Newtons, ...)
If the header above contains a line with 'inDegrees', this indicates whether rotational values are in degrees (yes) or radians (no).

endheader
time	pelvis_tilt	pelvis_list	pelvis_rotation	pelvis_tx	pelvis_ty	pelvis_tz	hip_flexion_r	hip_adduction_r	hip_rotation_r	knee_angle_r	knee_angle_r_beta	ankle_angle_r	subtalar_angle_r	mtp_angle_r	hip_flexion_l	hip_adduction_l	hip_rotation_l	knee_angle_l	knee_angle_l_beta	ankle_angle_l	subtalar_angle_l	mtp_angle_l	lumbar_extension	lumbar_bending	lumbar_rotation	arm_flex_r	arm_add_r	arm_rot_r	elbow_flex_r	pro_sup_r	arm_flex_l	arm_add_l	arm_rot_l	elbow_flex_l	pro_sup_l
     45.00000000	     -0.13411649	     -9.26988269	     -1.87512504	      0.55399251	      1.02916586	      0.89671347	     21.71059499	     10.64083508	     -3.56401235	     25.35306877	      0.44249453	      3.79092449	    -14.53493835	     -7.49999987	     -1.03663078	    -14.13563166	     -2.03999428	     52.50382407	      0.91636460	    -20.83741974	     -7.38561925	     -7.49999987	    -15.54326587	     15.77461436	      0.43942862	      3.12163774	    -13.25475718	     -8.39195927	     22.18259917	     75.25005858	      8.97477226	     -5.87937290	     -5.68499750	     30.29672641	     72.59536385
     45.01666670	      0.06101495	     -9.50794067	     -1.08451396	      0.55499034	      1.03211547	      0.89895123	     19.80042341	     10.88720811	     -3.77575681	     24.63666268	      0.42999088	      5.75283498	    -14.12815694	     -7.49999987	      0.51606112	    -14.50645069	     -0.43565129	     55.04847370	      0.96077711	    -18.35545110	     -8.35710394	     -7.49999987	    -15.07303531	     16.08665611	      0.48517512	      3.07309424	    -13.15804349	     -8.22047479	     22.44941114	     75.47921719	      7.90046661	     -5.34276231	     -5.50077035	     29.59321464	     72.67286635
     45.03333330	      0.52886113	     -9.46229042	     -0.38360408	      0.55391893	      1.03576577	      0.90172861	     17.46239604	     10.84220546	     -4.16421819	     23.50165757	      0.41018130	      7.46791418	    -13.21091283	     -7.49999987	      2.08232678	    -14.54087703	      0.96693262	     57.18153122	      0.99800599	    -15.15366250	     -9.75198024	     -7.49999987	    -15.09858169	     16.04789769	      0.59567657	      3.14613989	    -12.93332877	     -8.03602973	     22.64151416	     75.70293007	      6.87513755	     -4.96573352	     -5.37647689	     28.82309596	     72.70897103
     45.05000000	      1.30327066	     -9.04695132	      0.25890103	      0.55132331	      1.04187853	      0.90407169	     14.78199779	     10.39143363	     -4.88967270	     22.10803509	      0.38585800	      9.13448740	    -11.52685308	     -7.49999987	      3.66827469	    -14.14355469	      2.03124697	     58.87781597	      1.02761175	    -11.79752789	    -11.43084166	     -7.49999987	    -15.70344551	     15.56183172	      0.67837640	      3.51988692	    -12.64735557	     -7.44021311	     22.84465869	     74.93956672	      6.02627704	     -4.80661326	     -5.22004327	     27.87944796	     71.61608636
     45.06666670	      2.17151201	     -8.38616709	      0.65363788	      0.54799450	      1.04907430	      0.90644052	     12.05508643	      9.79771184	     -5.34354434	     20.61124283	      0.35973405	     10.11490806	    -10.25801927	     -7.49999987	      5.46089705	    -13.51422376	      2.45783624	     60.24868489	      1.05153792	     -8.56092805	    -12.65740818	     -7.49999987	    -16.71472668	     14.75097532	      0.96299297	      4.03698420	    -12.27063520	     -7.29476621	     23.37444362	     74.17366094	      5.29043868	     -4.78477946	     -5.29490066	     27.07022065	     70.76006982
     45.08333330	      3.23693666	     -7.46497345	      1.15915064	      0.54463568	      1.05485345	      0.90863647	      9.15475762	      8.90233255	     -6.07224670	     19.04540837	      0.33240508	     11.27333598	     -8.29314124	     -7.49999987	      7.36992489	    -12.48921067	      2.73545483	     61.25306035	      1.06906758	     -6.18750532	    -13.82646058	     -7.49999987	    -18.16144950	     13.66461780	      1.33823107	      4.48916431	    -12.01027923	     -7.04062059	     24.57774898	     74.01955840	      4.88642964	     -4.91978435	     -4.96024479	     26.47123625	     70.36121290
     45.10000000	      4.07199961	     -6.46343409	      1.73469699	      0.54256872	      1.05769196	      0.91030302	      6.44501046	      7.96405633	     -6.79186619	     17.35562336	      0.30291277	     12.14014047	     -6.41156309	     -7.49999987	      9.59669107	    -11.30756343	      2.90124986	     61.71051266	      1.07705163	     -4.31499577	    -14.41942261	     -7.49999987	    -19.29096035	     12.53523921	      1.35963943	      5.11728857	    -11.67632101	     -7.21356927	     25.77780466	     74.28051960	      4.52552708	     -5.17036220	     -4.78433738	     25.83669564	     70.49311335
     45.11666670	      4.74628689	     -5.39383781	      2.21288536	      0.54134124	      1.05857926	      0.91095354	      3.80074609	      7.00425859	     -7.31462781	     15.54193057	      0.27125786	     12.83609339	     -4.56460034	     -7.49999987	     11.62134603	    -10.02376335	      2.80720771	     61.18895413	      1.06794872	     -2.85596700	    -14.70206785	     -7.49999987	    -20.21550781	     11.28337573	      1.56232179	      5.53453920	    -11.42911368	     -7.45922184	     27.30038677	     74.49964099	      4.24675723	     -5.41947524	     -4.53787644	     25.42304505	     70.61578475
     45.13333330	      5.08508313	     -4.39755827	      2.64387246	      0.53885315	      1.05823209	      0.91093022	      1.53295500	      6.12714896	     -7.74098764	     13.75083155	      0.23999729	     13.23306284	     -3.06131734	     -7.49999987	     13.50461032	     -8.86223875	      2.53083298	     59.85535064	      1.04467294	     -1.56917444	    -14.57126332	     -7.49999987	    -20.70738972	     10.07884016	      1.77004804	      5.91944925	    -11.27711613	     -7.59055116	     28.84469537	     74.72612520	      3.93805643	     -5.63334656	     -4.19560133	     25.10692620	     70.76522829
     45.15000000	      5.11474582	     -3.50974514	      2.98990351	      0.53396005	      1.05765691	      0.91173995	     -0.26498690	      5.35758171	     -8.04423573	     12.16206216	      0.21226803	     13.48587039	     -2.00876399	     -7.49999987	     15.24100109	     -7.89898769	      2.06901069	     57.81404197	      1.00904539	     -0.42274838	    -14.31155003	     -7.49999987	    -20.90029281	      8.95062869	      2.27537011	      6.20231630	    -11.34660209	     -7.54460997	     30.49266196	     74.47286543	      3.66436420	     -5.82638610	     -3.35406433	     24.97755593	     70.49045596
     45.16666670	      4.94334116	     -2.81526144	      3.32492461	      0.52767172	      1.05733967	      0.91402623	     -1.64186320	      4.81762395	     -8.16159198	     10.86604130	      0.18964820	     13.55101382	     -1.71074795	     -7.49999987	     16.94210316	     -7.23844538	      1.57518065	     55.34093119	      0.96588146	      0.66426965	    -13.99071292	     -7.49999987	    -20.96424671	      8.03621114	      2.53683707	      6.86531887	    -11.44979546	     -7.31816012	     31.77262042	     74.26522100	      3.13649464	     -5.98579203	     -3.10596697	     25.30318866	     70.24244599
     45.18333330	      4.71776590	     -2.27421169	      3.63443094	      0.52167325	      1.05664538	      0.91609773	     -2.73078710	      4.41727560	     -8.51016863	      9.94367063	      0.17354979	     13.97732706	     -1.04913804	     -7.49999987	     18.54188960	     -6.80583422	      1.10386525	     52.47669114	      0.91589104	      1.64085615	    -13.77187418	     -7.49999987	    -21.10310352	      7.30318928	      2.71502980	      7.61030504	    -11.79460221	     -6.17702186	     33.13523720	     74.44711506	      2.48813262	     -6.22395255	     -2.29607506	     25.96506391	     70.12981527
     45.20000000	      4.22698641	     -1.94499436	      3.92313394	      0.51636131	      1.05519680	      0.91652065	     -3.27989530	      4.24628058	     -8.61870929	      9.36339364	      0.16342205	     14.21060735	     -1.12289614	     -7.49999987	     20.33332711	     -6.60469981	      0.68784897	     49.29565141	      0.86037142	      2.51006182	    -13.48107444	     -7.49999987	    -20.92088744	      6.81215963	      3.02005056	      8.37687131	    -12.00816536	     -5.98772580	     33.95210108	     74.56938929	      2.01843370	     -6.21517189	     -2.21871776	     26.26497179	     70.16991935
     45.21666670	      3.76602640	     -1.62595400	      4.06811684	      0.51047293	      1.05340968	      0.91590436	     -3.69226055	      4.03938090	     -8.64060190	      8.96254473	      0.15642591	     14.76610491	     -1.13315378	     -7.49999987	     21.99169630	     -6.42767760	      0.06387490	     45.82352061	      0.79977131	      3.19113703	    -12.77942789	     -7.49999987	    -20.91352455	      6.32601616	      3.17175400	      9.12513256	    -12.29396812	     -5.40413280	     35.29930496	     74.82817188	      1.38627156	     -6.31385606	     -2.13191737	     26.99861730	     70.23548438
     45.23333330	      3.45136690	     -1.47899702	      4.23021324	      0.50255688	      1.05355834	      0.91547745	     -4.22944509	      4.00199934	     -8.59956792	      8.44647116	      0.14741873	     15.30501289	     -0.99301238	     -7.49999987	     23.54522983	     -6.33873958	     -0.58469872	     42.09084317	      0.73462380	      3.38989887	    -11.99949032	     -7.49999987	    -21.22358016	      6.11573600	      3.34709775	     10.00054240	    -12.78916695	     -4.51030178	     36.65232404	     74.78552375	      0.86835012	     -6.32519311	     -2.33392251	     27.81824488	     69.95685113
     45.25000000	      2.88751265	     -1.31493217	      4.55983547	      0.49431530	      1.05330113	      0.91556774	     -4.63024429	      3.91960446	     -8.67428463	      7.64158020	      0.13337073	     15.97518217	     -0.45076401	     -7.49999987	     25.39223736	     -5.99508481	     -1.08986860	     38.10609499	      0.66507682	      3.62224056	    -10.80374872	     -7.49999987	    -21.23791510	      5.98242477	      2.54460525	     11.57787985	    -13.36690737	     -1.47713504	     37.26663571	     76.24517909	      0.09789787	     -6.53377010	     -2.97271838	     28.62850737	     70.44670926
